<svg width="351" height="344" viewBox="0 0 351 344" fill="none" xmlns="http://www.w3.org/2000/svg">
<g clip-path="url(#clip0_1_2)">
<circle cx="175" cy="172" r="171.79" transform="rotate(0.0728567 175 172)" fill="#1A1818"/>
<path d="M134.723 102V231H119.102V102H134.723ZM216.943 213.363V102H232.564V231H218.287L216.943 213.363ZM155.803 186.572V184.809C155.803 177.866 156.643 171.567 158.322 165.912C160.058 160.201 162.493 155.302 165.629 151.215C168.82 147.128 172.6 143.992 176.967 141.809C181.39 139.569 186.317 138.449 191.748 138.449C197.459 138.449 202.442 139.457 206.697 141.473C211.008 143.432 214.648 146.316 217.615 150.123C220.639 153.874 223.018 158.41 224.754 163.729C226.49 169.048 227.693 175.066 228.365 181.785V189.512C227.749 196.174 226.546 202.165 224.754 207.484C223.018 212.803 220.639 217.339 217.615 221.09C214.648 224.841 211.008 227.725 206.697 229.74C202.386 231.7 197.347 232.68 191.58 232.68C186.261 232.68 181.39 231.532 176.967 229.236C172.6 226.941 168.82 223.721 165.629 219.578C162.493 215.435 160.058 210.564 158.322 204.965C156.643 199.31 155.803 193.179 155.803 186.572ZM171.424 184.809V186.572C171.424 191.107 171.872 195.363 172.768 199.338C173.719 203.313 175.175 206.812 177.135 209.836C179.094 212.859 181.586 215.239 184.609 216.975C187.633 218.654 191.244 219.494 195.443 219.494C200.594 219.494 204.822 218.402 208.125 216.219C211.484 214.035 214.172 211.152 216.188 207.568C218.203 203.985 219.771 200.094 220.891 195.895V175.654C220.219 172.575 219.239 169.607 217.951 166.752C216.719 163.84 215.096 161.265 213.08 159.025C211.12 156.73 208.685 154.91 205.773 153.566C202.918 152.223 199.531 151.551 195.611 151.551C191.356 151.551 187.689 152.447 184.609 154.238C181.586 155.974 179.094 158.382 177.135 161.461C175.175 164.484 173.719 168.012 172.768 172.043C171.872 176.018 171.424 180.273 171.424 184.809Z" fill="#ECE7E1"/>
</g>
<defs>
<clipPath id="clip0_1_2">
<rect width="351" height="344" fill="white"/>
</clipPath>
</defs>
</svg>
